  0
SECTION
  2
HEADER
  9
$ACADVER
  1
AC1009
  9
$INSBASE
 10
0.0
 20
0.0
 30
0.0
  9
$EXTMIN
 10
11.966523216410589
 20
3.6876603397053782
 30
0.0
  9
$EXTMAX
 10
22.966523216410589
 20
12.18766033970538
 30
0.0
  9
$LIMMIN
 10
0.0
 20
0.0
  9
$LIMMAX
 10
12.0
 20
9.0
  9
$ORTHOMODE
 70
     0
  9
$REGENMODE
 70
     1
  9
$FILLMODE
 70
     1
  9
$QTEXTMODE
 70
     0
  9
$MIRRTEXT
 70
     1
  9
$DRAGMODE
 70
     2
  9
$LTSCALE
 40
1.0
  9
$OSMODE
 70
    39
  9
$ATTMODE
 70
     1
  9
$TEXTSIZE
 40
0.1875
  9
$TRACEWID
 40
0.05
  9
$TEXTSTYLE
  7
STANDARD
  9
$CLAYER
  8
0
  9
$CELTYPE
  6
BYLAYER
  9
$CECOLOR
 62
   256
  9
$DIMSCALE
 40
1.0
  9
$DIMASZ
 40
0.15625
  9
$DIMEXO
 40
0.03125
  9
$DIMDLI
 40
0.38
  9
$DIMRND
 40
0.0
  9
$DIMDLE
 40
0.0
  9
$DIMEXE
 40
0.03125
  9
$DIMTP
 40
0.0
  9
$DIMTM
 40
0.0
  9
$DIMTXT
 40
0.15625
  9
$DIMCEN
 40
0.0
  9
$DIMTSZ
 40
0.0
  9
$DIMTOL
 70
     0
  9
$DIMLIM
 70
     0
  9
$DIMTIH
 70
     1
  9
$DIMTOH
 70
     1
  9
$DIMSE1
 70
     0
  9
$DIMSE2
 70
     0
  9
$DIMTAD
 70
     0
  9
$DIMZIN
 70
     0
  9
$DIMBLK
  1

  9
$DIMASO
 70
     1
  9
$DIMSHO
 70
     1
  9
$DIMPOST
  1

  9
$DIMAPOST
  1

  9
$DIMALT
 70
     0
  9
$DIMALTD
 70
     2
  9
$DIMALTF
 40
25.399999999999999
  9
$DIMLFAC
 40
1.0
  9
$DIMTOFL
 70
     0
  9
$DIMTVP
 40
0.0
  9
$DIMTIX
 70
     0
  9
$DIMSOXD
 70
     0
  9
$DIMSAH
 70
     0
  9
$DIMBLK1
  1

  9
$DIMBLK2
  1

  9
$DIMSTYLE
  2
STANDARD
  9
$DIMCLRD
 70
     0
  9
$DIMCLRE
 70
     0
  9
$DIMCLRT
 70
     0
  9
$DIMTFAC
 40
1.0
  9
$DIMGAP
 40
0.0625
  9
$LUNITS
 70
     2
  9
$LUPREC
 70
     7
  9
$SKETCHINC
 40
0.1
  9
$FILLETRAD
 40
0.182882812499999
  9
$AUNITS
 70
     0
  9
$AUPREC
 70
     8
  9
$MENU
  1
.
  9
$ELEVATION
 40
0.0
  9
$PELEVATION
 40
0.0
  9
$THICKNESS
 40
0.0
  9
$LIMCHECK
 70
     0
  9
$BLIPMODE
 70
     0
  9
$CHAMFERA
 40
0.0
  9
$CHAMFERB
 40
0.0
  9
$SKPOLY
 70
     0
  9
$TDCREATE
 40
2453087.3875628472
  9
$TDUPDATE
 40
2453462.6479122918
  9
$TDINDWG
 40
0.0883395486
  9
$TDUSRTIMER
 40
0.0883395486
  9
$USRTIMER
 70
     1
  9
$ANGBASE
 50
0.0
  9
$ANGDIR
 70
     0
  9
$PDMODE
 70
     0
  9
$PDSIZE
 40
0.0
  9
$PLINEWID
 40
0.0
  9
$COORDS
 70
     0
  9
$SPLFRAME
 70
     0
  9
$SPLINETYPE
 70
     6
  9
$SPLINESEGS
 70
     8
  9
$ATTDIA
 70
     0
  9
$ATTREQ
 70
     1
  9
$HANDLING
 70
     1
  9
$HANDSEED
  5
C60
  9
$SURFTAB1
 70
     6
  9
$SURFTAB2
 70
     6
  9
$SURFTYPE
 70
     6
  9
$SURFU
 70
     6
  9
$SURFV
 70
     6
  9
$UCSNAME
  2

  9
$UCSORG
 10
0.0
 20
0.0
 30
0.0
  9
$UCSXDIR
 10
1.0
 20
0.0
 30
0.0
  9
$UCSYDIR
 10
0.0
 20
1.0
 30
0.0
  9
$PUCSNAME
  2

  9
$PUCSORG
 10
0.0
 20
0.0
 30
0.0
  9
$PUCSXDIR
 10
1.0
 20
0.0
 30
0.0
  9
$PUCSYDIR
 10
0.0
 20
1.0
 30
0.0
  9
$USERI1
 70
     0
  9
$USERI2
 70
     0
  9
$USERI3
 70
     0
  9
$USERI4
 70
     0
  9
$USERI5
 70
     0
  9
$USERR1
 40
0.0
  9
$USERR2
 40
0.0
  9
$USERR3
 40
0.0
  9
$USERR4
 40
0.0
  9
$USERR5
 40
0.0
  9
$WORLDVIEW
 70
     1
  9
$SHADEDGE
 70
     3
  9
$SHADEDIF
 70
    70
  9
$TILEMODE
 70
     1
  9
$MAXACTVP
 70
    64
  9
$PLIMCHECK
 70
     0
  9
$PEXTMIN
 10
1.0000000000000000E+020
 20
1.0000000000000000E+020
 30
1.0000000000000000E+020
  9
$PEXTMAX
 10
-1.0000000000000000E+020
 20
-1.0000000000000000E+020
 30
-1.0000000000000000E+020
  9
$PLIMMIN
 10
0.0
 20
0.0
  9
$PLIMMAX
 10
12.0
 20
9.0
  9
$UNITMODE
 70
     0
  9
$VISRETAIN
 70
     1
  9
$PLINEGEN
 70
     0
  9
$PSLTSCALE
 70
     1
  0
ENDSEC
  0
SECTION
  2
TABLES
  0
TABLE
  2
VPORT
 70
     2
  0
VPORT
  2
*ACTIVE
 70
     0
 10
0.0
 20
0.0
 11
1.0
 21
1.0
 12
17.47079208428428
 22
7.9388014780293537
 13
0.0
 23
0.0
 14
0.5
 24
0.5
 15
0.5
 25
0.5
 16
0.0
 26
0.0
 36
1.0
 17
0.0
 27
0.0
 37
0.0
 40
8.6118691289972382
 41
2.1727078891257992
 42
50.0
 43
0.0
 44
0.0
 50
0.0
 51
0.0
 71
     0
 72
 20000
 73
     1
 74
     2
 75
     0
 76
     0
 77
     0
 78
     0
  0
ENDTAB
  0
TABLE
  2
LTYPE
 70
     3
  0
LTYPE
  2
CONTINUOUS
 70
     0
  3
Solid line
 72
    65
 73
     0
 40
0.0
  0
LTYPE
  2
HIDDEN
 70
     0
  3
Hidden __ __ __ __ __ __ __ __ __ __ __ __ __ _
 72
    65
 73
     2
 40
0.375
 49
0.25
 49
-0.125
  0
LTYPE
  2
CENTER
 70
     0
  3
Center ____ _ ____ _ ____ _ ____ _ ____ _ ____
 72
    65
 73
     4
 40
2.0
 49
1.25
 49
-0.25
 49
0.25
 49
-0.25
  0
ENDTAB
  0
TABLE
  2
LAYER
 70
     5
  0
LAYER
  2
0
 70
     0
 62
     7
  6
CONTINUOUS
  0
LAYER
  2
FORM
 70
     0
 62
     5
  6
CONTINUOUS
  0
LAYER
  2
DIMENSION
 70
     0
 62
     1
  6
CONTINUOUS
  0
LAYER
  2
SHOULDER_-_BUTTON
 70
     0
 62
     7
  6
CONTINUOUS
  0
LAYER
  2
DEFPOINTS
 70
     0
 62
     7
  6
CONTINUOUS
  0
ENDTAB
  0
TABLE
  2
STYLE
 70
     1
  0
STYLE
  2
STANDARD
 70
     0
 40
0.0
 41
1.0
 50
0.0
 71
     0
 42
0.1875
  3
simplex.shx
  4

  0
ENDTAB
  0
TABLE
  2
VIEW
 70
     0
  0
ENDTAB
  0
TABLE
  2
UCS
 70
     0
  0
ENDTAB
  0
TABLE
  2
APPID
 70
     2
  0
APPID
  2
ACAD
 70
     0
  0
APPID
  2
DCO15
 70
     0
  0
ENDTAB
  0
TABLE
  2
DIMSTYLE
 70
     1
  0
DIMSTYLE
  2
STANDARD
 70
     0
  3

  4

  5

  6

  7

 40
1.0
 41
0.15625
 42
0.03125
 43
0.38
 44
0.03125
 45
0.0
 46
0.0
 47
0.0
 48
0.0
140
0.15625
141
0.0
142
0.0
143
25.399999999999999
144
1.0
145
0.0
146
1.0
147
0.0625
 71
     0
 72
     0
 73
     1
 74
     1
 75
     0
 76
     0
 77
     0
 78
     0
170
     0
171
     2
172
     0
173
     0
174
     0
175
     0
176
     0
177
     0
178
     0
  0
ENDTAB
  0
ENDSEC
  0
SECTION
  2
BLOCKS
  0
BLOCK
  8
0
  2
$MODEL_SPACE
 70
     0
 10
0.0
 20
0.0
 30
0.0
  3
$MODEL_SPACE
  1

  0
ENDBLK
  5
21
  8
0
  0
BLOCK
 67
     1
  8
0
  2
$PAPER_SPACE
 70
     0
 10
0.0
 20
0.0
 30
0.0
  3
$PAPER_SPACE
  1

  0
ENDBLK
  5
1D
 67
     1
  8
0
  0
ENDSEC
  0
SECTION
  2
ENTITIES
  0
CIRCLE
  5
2DB
  8
SHOULDER_-_BUTTON
 10
15.93668998045481
 20
7.7259991270290991
 30
0.0
 40
0.5
  0
CIRCLE
  5
2DD
  8
SHOULDER_-_BUTTON
 10
15.93668998045481
 20
7.7259991270290991
 30
0.0
 40
0.25
  0
CIRCLE
  5
2DE
  8
SHOULDER_-_BUTTON
 10
15.93668998045481
 20
7.7259991270290991
 30
0.0
 40
0.0625
  0
CIRCLE
  5
2E0
  8
SHOULDER_-_BUTTON
 10
15.649604627293069
 20
8.0130844801908374
 30
0.0
 40
0.0625
  0
CIRCLE
  5
2E1
  8
SHOULDER_-_BUTTON
 10
16.22377533361654
 20
8.0130844801908374
 30
0.0
 40
0.0625
  0
LINE
  5
2E2
  8
SHOULDER_-_BUTTON
  6
CENTER
 10
15.93668998045481
 20
8.3279070228050358
 30
0.0
 11
15.93668998045481
 21
7.1240912312531623
 31
0.0
  0
LINE
  5
2E3
  8
SHOULDER_-_BUTTON
  6
CENTER
 10
16.538597876230739
 20
7.7259991270290991
 30
0.0
 11
15.334782084678871
 21
7.7259991270290991
 31
0.0
  0
LINE
  5
2E6
  8
SHOULDER_-_BUTTON
 10
18.999351032572221
 20
8.2259991270290982
 30
0.0
 11
19.624351032572221
 21
8.2259991270290982
 31
0.0
  0
LINE
  5
2E7
  8
SHOULDER_-_BUTTON
 10
18.936851032572221
 20
7.9759991270290991
 30
0.0
 11
18.999351032572221
 21
7.9759991270290973
 31
0.0
  0
LINE
  5
2E8
  8
SHOULDER_-_BUTTON
 10
18.936851032572221
 20
7.4759991270290991
 30
0.0
 11
18.999351032572221
 21
7.4759991270290991
 31
0.0
  0
LINE
  5
2E9
  8
SHOULDER_-_BUTTON
 10
18.999351032572221
 20
7.2259991270290991
 30
0.0
 11
19.624351032572221
 21
7.2259991270290991
 31
0.0
  0
LINE
  5
2EA
  8
SHOULDER_-_BUTTON
 10
19.624351032572221
 20
8.2259991270290982
 30
0.0
 11
19.624351032572221
 21
7.2259991270290991
 31
0.0
  0
LINE
  5
2EB
  8
SHOULDER_-_BUTTON
 10
18.999351032572221
 20
8.2259991270290982
 30
0.0
 11
18.999351032572221
 21
7.2259991270290991
 31
0.0
  0
LINE
  5
2EC
  8
SHOULDER_-_BUTTON
 10
18.936851032572221
 20
7.9759991270290991
 30
0.0
 11
18.936851032572221
 21
7.4759991270290991
 31
0.0
  0
LINE
  5
2ED
  8
SHOULDER_-_BUTTON
 10
18.874351032572221
 20
7.7884991270290973
 30
0.0
 11
18.874351032572221
 21
7.6634991270290991
 31
0.0
  0
LINE
  5
2F1
  8
SHOULDER_-_BUTTON
  6
HIDDEN
 10
18.874351032572221
 20
7.7884991270290991
 30
0.0
 11
19.624351032572221
 21
7.7884991270290991
 31
0.0
  0
LINE
  5
2F2
  8
SHOULDER_-_BUTTON
  6
HIDDEN
 10
18.874351032572221
 20
7.6634991270290991
 30
0.0
 11
19.624351032572221
 21
7.6634991270290991
 31
0.0
  0
LINE
  5
2F3
  8
SHOULDER_-_BUTTON
 10
18.874351032572221
 20
7.7884991270290991
 30
0.0
 11
18.936851032572221
 21
7.9759991270290991
 31
0.0
  0
LINE
  5
2F4
  8
SHOULDER_-_BUTTON
 10
18.874351032572221
 20
7.6634991270290991
 30
0.0
 11
18.936851032572221
 21
7.4759991270290991
 31
0.0
  0
LINE
  5
2F6
  8
SHOULDER_-_BUTTON
  6
HIDDEN
 10
18.999351032572221
 20
7.9505844801908356
 30
0.0
 11
19.624351032572221
 21
7.9505844801908356
 31
0.0
  0
LINE
  5
2F7
  8
SHOULDER_-_BUTTON
  6
HIDDEN
 10
18.999351032572221
 20
8.0755844801908374
 30
0.0
 11
19.624351032572221
 21
8.0755844801908374
 31
0.0
  0
CIRCLE
  5
2F9
  8
SHOULDER_-_BUTTON
  6
CENTER
 10
15.93668998045481
 20
7.7259991270290991
 30
0.0
 40
0.4060000000000001
  0
LINE
  5
2FB
  8
SHOULDER_-_BUTTON
  6
CENTER
 10
15.93668998045481
 20
7.7259991270290991
 30
0.0
 11
15.51107682570191
 21
8.1516122817819898
 31
0.0
  0
LINE
  5
2FC
  8
SHOULDER_-_BUTTON
  6
CENTER
 10
15.93668998045481
 20
7.7259991270290991
 30
0.0
 11
16.362303135207689
 21
8.1516122817819898
 31
0.0
  0
LINE
  5
2FE
  8
SHOULDER_-_BUTTON
  6
CENTER
 10
19.902120986261512
 20
7.7259991270290991
 30
0.0
 11
18.698305194709629
 21
7.7259991270290991
 31
0.0
  0
LINE
  5
397
  8
DIMENSION
 10
15.796341796896851
 20
7.5582077390737448
 30
0.0
 11
15.222062872124811
 21
6.8932817033667053
 31
0.0
  0
LINE
  5
398
  8
DIMENSION
 10
15.222062872124811
 20
6.8932817033667053
 30
0.0
 11
15.065812872124811
 21
6.8932817033667071
 31
0.0
  0
SOLID
  5
399
  8
DIMENSION
 10
15.77636663166407
 20
7.5749158561639769
 30
0.0
 11
15.81631696212963
 21
7.5414996219835126
 31
0.0
 12
15.896590499438251
 22
7.6780587304704273
 32
0.0
 13
15.896590499438251
 23
7.6780587304704273
 33
0.0
  0
LINE
  5
39B
  8
DIMENSION
 10
15.41186141659953
 20
7.9276920645891558
 30
0.0
 11
14.86766623628311
 21
8.1269742021223141
 31
0.0
  0
LINE
  5
39C
  8
DIMENSION
 10
14.86766623628311
 20
8.1269742021223141
 30
0.0
 11
14.71141623628311
 21
8.1269742021223141
 31
0.0
  0
SOLID
  5
39D
  8
DIMENSION
 10
15.42120320450341
 20
7.9520004870294656
 30
0.0
 11
15.402519628695639
 21
7.903383642148845
 31
0.0
 12
15.557711951241391
 22
7.8716413371658414
 32
0.0
 13
15.557711951241391
 23
7.8716413371658414
 33
0.0
  0
LINE
  5
429
  8
DIMENSION
 10
18.905601032572221
 20
7.9759991270290991
 30
0.0
 11
18.168012676504549
 21
7.9759991270290991
 31
0.0
  0
LINE
  5
42A
  8
DIMENSION
 10
18.905601032572221
 20
7.4759991270290991
 30
0.0
 11
18.168012676504549
 21
7.4759991270290991
 31
0.0
  0
LINE
  5
42B
  8
DIMENSION
 10
18.199262676504549
 20
8.1322491270290982
 30
0.0
 11
18.199262676504549
 21
8.2884991270290982
 31
0.0
  0
LINE
  5
42C
  8
DIMENSION
 10
18.199262676504549
 20
7.3197491270290991
 30
0.0
 11
18.199262676504549
 21
7.1634991270290991
 31
0.0
  0
SOLID
  5
42D
  8
DIMENSION
 10
18.173221009837889
 20
8.1322491270290982
 30
0.0
 11
18.225304343171221
 21
8.1322491270290982
 31
0.0
 12
18.199262676504549
 22
7.9759991270290991
 32
0.0
 13
18.199262676504549
 23
7.9759991270290991
 33
0.0
  0
SOLID
  5
42E
  8
DIMENSION
 10
18.173221009837889
 20
7.3197491270290991
 30
0.0
 11
18.225304343171221
 21
7.3197491270290991
 31
0.0
 12
18.199262676504549
 22
7.4759991270290991
 32
0.0
 13
18.199262676504549
 23
7.4759991270290991
 33
0.0
  0
LINE
  5
430
  8
DIMENSION
 10
19.655601032572221
 20
8.2259991270290982
 30
0.0
 11
20.495309389335681
 21
8.2259991270290982
 31
0.0
  0
LINE
  5
431
  8
DIMENSION
 10
19.655601032572221
 20
7.2259991270290991
 30
0.0
 11
20.495309389335681
 21
7.2259991270290982
 31
0.0
  0
LINE
  5
432
  8
DIMENSION
 10
20.464059389335681
 20
8.0697491270290982
 30
0.0
 11
20.464059389335681
 21
7.907546746076715
 31
0.0
  0
LINE
  5
433
  8
DIMENSION
 10
20.464059389335681
 20
7.3822491270290982
 30
0.0
 11
20.464059389335681
 21
7.5444515079814787
 31
0.0
  0
SOLID
  5
434
  8
DIMENSION
 10
20.43801772266902
 20
8.0697491270290982
 30
0.0
 11
20.490101056002349
 21
8.0697491270290982
 31
0.0
 12
20.464059389335681
 22
8.2259991270290982
 32
0.0
 13
20.464059389335681
 23
8.2259991270290982
 33
0.0
  0
SOLID
  5
435
  8
DIMENSION
 10
20.43801772266902
 20
7.3822491270290982
 30
0.0
 11
20.490101056002349
 21
7.3822491270290982
 31
0.0
 12
20.464059389335681
 22
7.2259991270290982
 32
0.0
 13
20.464059389335681
 23
7.2259991270290982
 33
0.0
  0
TEXT
  5
437
  8
DIMENSION
 10
17.7987320833127
 20
7.6739157936957669
 30
0.0
 40
0.15625
  1
%%c0.500
  0
TEXT
  5
438
  8
DIMENSION
 10
20.03978615034633
 20
7.6739157936957669
 30
0.0
 40
0.15625
  1
%%c1.000
  0
LINE
  5
439
  8
DIMENSION
 10
18.874351032572221
 20
7.8197491270290991
 30
0.0
 11
18.874351032572221
 21
9.2572491270290982
 31
0.0
  0
LINE
  5
43A
  8
DIMENSION
 10
19.624351032572221
 20
8.2572491270290982
 30
0.0
 11
19.624351032572221
 21
9.2572491270290982
 31
0.0
  0
LINE
  5
43B
  8
DIMENSION
 10
18.718101032572221
 20
9.2259991270290982
 30
0.0
 11
18.561851032572221
 21
9.2259991270290982
 31
0.0
  0
LINE
  5
43C
  8
DIMENSION
 10
19.780601032572221
 20
9.2259991270290982
 30
0.0
 11
19.936851032572221
 21
9.2259991270290982
 31
0.0
  0
SOLID
  5
43D
  8
DIMENSION
 10
18.718101032572221
 20
9.252040793695766
 30
0.0
 11
18.718101032572221
 21
9.1999574603624303
 31
0.0
 12
18.874351032572221
 22
9.2259991270290982
 32
0.0
 13
18.874351032572221
 23
9.2259991270290982
 33
0.0
  0
SOLID
  5
43E
  8
DIMENSION
 10
19.780601032572221
 20
9.252040793695766
 30
0.0
 11
19.780601032572221
 21
9.1999574603624303
 31
0.0
 12
19.624351032572221
 22
9.2259991270290982
 32
0.0
 13
19.624351032572221
 23
9.2259991270290982
 33
0.0
  0
LINE
  5
440
  8
DIMENSION
 10
18.999351032572221
 20
8.2572491270290982
 30
0.0
 11
18.999351032572221
 21
8.7572491270290982
 31
0.0
  0
LINE
  5
441
  8
DIMENSION
 10
19.624351032572221
 20
8.2572491270290982
 30
0.0
 11
19.624351032572221
 21
8.7572491270290982
 31
0.0
  0
LINE
  5
442
  8
DIMENSION
 10
18.843101032572221
 20
8.7259991270290982
 30
0.0
 11
18.686851032572221
 21
8.7259991270290982
 31
0.0
  0
LINE
  5
443
  8
DIMENSION
 10
19.780601032572221
 20
8.7259991270290982
 30
0.0
 11
19.936851032572221
 21
8.7259991270290982
 31
0.0
  0
SOLID
  5
444
  8
DIMENSION
 10
18.843101032572221
 20
8.752040793695766
 30
0.0
 11
18.843101032572221
 21
8.6999574603624303
 31
0.0
 12
18.999351032572221
 22
8.7259991270290982
 32
0.0
 13
18.999351032572221
 23
8.7259991270290982
 33
0.0
  0
SOLID
  5
445
  8
DIMENSION
 10
19.780601032572221
 20
8.752040793695766
 30
0.0
 11
19.780601032572221
 21
8.6999574603624303
 31
0.0
 12
19.624351032572221
 22
8.7259991270290982
 32
0.0
 13
19.624351032572221
 23
8.7259991270290982
 33
0.0
  0
LINE
  5
447
  8
DIMENSION
 10
18.936851032572221
 20
7.4447491270290991
 30
0.0
 11
18.936851032572221
 21
6.6947491270290991
 31
0.0
  0
LINE
  5
448
  8
DIMENSION
 10
18.999351032572221
 20
7.1947491270290991
 30
0.0
 11
18.999351032572221
 21
6.6947491270290991
 31
0.0
  0
LINE
  5
449
  8
DIMENSION
 10
18.780601032572221
 20
6.7259991270290991
 30
0.0
 11
18.624351032572221
 21
6.7259991270290991
 31
0.0
  0
LINE
  5
44A
  8
DIMENSION
 10
19.155601032572221
 20
6.7259991270290991
 30
0.0
 11
19.311851032572221
 21
6.7259991270290991
 31
0.0
  0
SOLID
  5
44B
  8
DIMENSION
 10
18.780601032572221
 20
6.752040793695766
 30
0.0
 11
18.780601032572221
 21
6.6999574603624321
 31
0.0
 12
18.936851032572221
 22
6.7259991270290991
 32
0.0
 13
18.936851032572221
 23
6.7259991270290991
 33
0.0
  0
SOLID
  5
44C
  8
DIMENSION
 10
19.155601032572221
 20
6.752040793695766
 30
0.0
 11
19.155601032572221
 21
6.6999574603624321
 31
0.0
 12
18.999351032572221
 22
6.7259991270290991
 32
0.0
 13
18.999351032572221
 23
6.7259991270290991
 33
0.0
  0
LINE
  5
44E
  8
DIMENSION
 10
16.384400222119769
 20
8.1737093686940696
 30
0.0
 11
16.9645983434703
 21
8.7539074900446021
 31
0.0
  0
LINE
  5
44F
  8
DIMENSION
 10
15.48897973878983
 20
8.1737093686940696
 30
0.0
 11
14.908781617439301
 21
8.7539074900446003
 31
0.0
  0
ARC
  5
450
  8
DIMENSION
 10
15.93668998045481
 20
7.7259991270290991
 30
0.0
 40
1.422431947853249
 50
51.296942836378079
 51
80.850171699430774
  0
ARC
  5
451
  8
DIMENSION
 10
15.93668998045481
 20
7.7259991270290991
 30
0.0
 40
1.422431947853249
 50
99.149828300569467
 51
128.70305716362211
  0
SOLID
  5
452
  8
DIMENSION
 10
16.84348941018667
 20
8.8554586347449202
 30
0.0
 11
16.808739272710842
 21
8.8166629963750971
 31
0.0
 12
16.942501256558231
 22
8.7318104031325241
 32
0.0
 13
16.942501256558231
 23
8.7318104031325241
 33
0.0
  0
SOLID
  5
453
  8
DIMENSION
 10
15.064640688198759
 20
8.8166629963750935
 30
0.0
 11
15.02989055072293
 21
8.8554586347449167
 31
0.0
 12
14.930878704351381
 22
8.7318104031325205
 32
0.0
 13
14.930878704351381
 23
8.7318104031325205
 33
0.0
  0
TEXT
  5
455
  8
DIMENSION
 10
14.24644803227967
 20
6.8107146764642037
 30
0.0
 40
0.15625
  1
%%c0.125
 72
     2
 11
14.98305517513681
 21
6.8107146764642037
 31
0.0
  0
TEXT
  5
456
  8
DIMENSION
 10
13.89524297603835
 20
6.5502980097975367
 30
0.0
 40
0.15625
  1
THRU, 3X
 72
     2
 11
14.98155249984787
 21
6.5502980097975367
 31
0.0
  0
TEXT
  5
457
  8
DIMENSION
 10
13.911593456090911
 20
8.0748908687889838
 30
0.0
 40
0.15625
  1
%%c0.812
  0
TEXT
  5
458
  8
DIMENSION
 10
15.77299950426433
 20
9.0703060748823496
 30
0.0
 40
0.15625
  1
90°
  0
TEXT
  5
459
  8
DIMENSION
 10
19.374351032572221
 20
6.673915793695766
 30
0.0
 40
0.15625
  1
0.063
  0
TEXT
  5
45A
  8
DIMENSION
 10
19.999351032572221
 20
8.673915793695766
 30
0.0
 40
0.15625
  1
0.625
  0
TEXT
  5
45B
  8
DIMENSION
 10
19.999351032572221
 20
9.173915793695766
 30
0.0
 40
0.15625
  1
0.750
  0
LINE
  5
46C
  8
DIMENSION
 10
16.384400222119769
 20
8.1737093686940696
 30
0.0
 11
16.660079292213421
 21
8.4493884387877181
 31
0.0
  0
LINE
  5
46D
  8
DIMENSION
 10
15.93668998045481
 20
8.3591570228050358
 30
0.0
 11
15.93668998045481
 21
8.7490261025938771
 31
0.0
  0
ARC
  5
46E
  8
DIMENSION
 10
15.93668998045481
 20
7.7259991270290991
 30
0.0
 40
0.9917769755647791
 50
26.927892504055659
 51
35.963946252027853
  0
ARC
  5
46F
  8
DIMENSION
 10
15.93668998045481
 20
7.7259991270290991
 30
0.0
 40
0.9917769755647791
 50
99.03605374797219
 51
108.07210749594439
  0
SOLID
  5
470
  8
DIMENSION
 10
16.71961351683775
 20
8.2915395199188495
 30
0.0
 11
16.759228634686629
 21
8.3253524767391305
 31
0.0
 12
16.637982205301348
 22
8.4272913518756418
 32
0.0
 13
16.637982205301348
 23
8.4272913518756418
 33
0.0
  0
SOLID
  5
471
  8
DIMENSION
 10
15.778874138166261
 20
8.7314286051313132
 30
0.0
 11
15.78297688557512
 21
8.6795071156032755
 31
0.0
 12
15.936689980454799
 22
8.7177761025938771
 32
0.0
 13
15.936689980454799
 23
8.7177761025938771
 33
0.0
  0
TEXT
  5
473
  8
DIMENSION
 10
16.152536121414119
 20
8.5641565755693456
 30
0.0
 40
0.15625
  1
45°
  0
TEXT
  5
475
  8
DIMENSION
 10
19.374351032572221
 20
6.4102410801606009
 30
0.0
 40
0.15625
  1
2X
  0
TEXT
  5
858
  8
0
  6
CONTINUOUS
 10
59.336501624055842
 20
16.329424803311291
 30
0.0
 40
0.12
  1
 
 51
7.0
  0
TEXT
  5
859
  8
0
  6
CONTINUOUS
 10
71.78059838953574
 20
23.392299233042952
 30
0.0
 40
0.24
  1
 
 51
7.0
  0
TEXT
  5
85A
  8
0
  6
CONTINUOUS
 10
80.990363401449017
 20
23.072289246465871
 30
0.0
 40
0.24
  1
 
 51
7.0
  0
TEXT
  5
85B
  8
0
  6
CONTINUOUS
 10
90.794322885881698
 20
6.2097084469385404
 30
0.0
 40
0.24
  1
 
 51
7.0
  0
LINE
  5
85C
  8
0
 10
12.45461487364604
 20
4.1757519969408152
 30
0.0
 11
12.45461487364604
 21
5.1757519969408152
 31
0.0
  0
LINE
  5
85D
  8
0
 10
12.45461487364604
 20
4.3007519969408152
 30
0.0
 11
12.57961487364604
 21
4.3007519969408152
 31
0.0
  0
LINE
  5
85E
  8
0
 10
12.45461487364604
 20
4.4257519969408152
 30
0.0
 11
12.70461487364604
 21
4.4257519969408152
 31
0.0
  0
LINE
  5
85F
  8
0
 10
12.45461487364604
 20
4.5507519969408152
 30
0.0
 11
12.57961487364604
 21
4.5507519969408152
 31
0.0
  0
LINE
  5
860
  8
0
 10
12.45461487364604
 20
4.6757519969408152
 30
0.0
 11
12.82961487364604
 21
4.6757519969408152
 31
0.0
  0
LINE
  5
861
  8
0
 10
12.45461487364604
 20
4.8007519969408152
 30
0.0
 11
12.57961487364604
 21
4.8007519969408152
 31
0.0
  0
LINE
  5
862
  8
0
 10
12.45461487364604
 20
4.9257519969408152
 30
0.0
 11
12.70461487364604
 21
4.9257519969408152
 31
0.0
  0
LINE
  5
863
  8
0
 10
12.45461487364604
 20
5.0507519969408152
 30
0.0
 11
12.57961487364604
 21
5.0507519969408152
 31
0.0
  0
LINE
  5
864
  8
0
 10
12.45461487364604
 20
5.1757519969408152
 30
0.0
 11
12.82961487364604
 21
5.1757519969408152
 31
0.0
  0
LINE
  5
865
  8
0
 10
12.45461487364604
 20
4.1757519969408152
 30
0.0
 11
12.82961487364604
 21
4.1757519969408152
 31
0.0
  0
TEXT
  5
866
  8
0
 10
12.878883647272479
 20
4.6427114359403321
 30
0.0
 40
0.0625
  1
1/2"
  0
TEXT
  5
867
  8
0
 10
12.628883647272479
 20
4.5177114359403321
 30
0.0
 40
0.0625
  1
3/8"
  0
TEXT
  5
868
  8
0
 10
12.753883647272479
 20
4.3927114359403321
 30
0.0
 40
0.0625
  1
1/4"
  0
TEXT
  5
869
  8
0
 10
12.628883647272479
 20
4.2677114359403321
 30
0.0
 40
0.0625
  1
1/8"
  0
TEXT
  5
86A
  8
0
 10
12.628883647272479
 20
4.7677114359403321
 30
0.0
 40
0.0625
  1
5/8"
  0
TEXT
  5
86B
  8
0
 10
12.753883647272479
 20
4.8927114359403321
 30
0.0
 40
0.0625
  1
3/4"
  0
TEXT
  5
86C
  8
0
 10
12.628883647272479
 20
5.0177114359403321
 30
0.0
 40
0.0625
  1
7/8"
  0
TEXT
  5
86D
  8
0
 10
12.878883647272479
 20
5.1427114359403321
 30
0.0
 40
0.0625
  1
1"
  0
LINE
  5
86E
  8
0
 10
11.966523216410589
 20
3.6876603397053791
 30
0.0
 11
11.966523216410589
 21
12.18766033970538
 31
0.0
  0
LINE
  5
86F
  8
0
 10
22.966523216410589
 20
3.6876603397053782
 30
0.0
 11
22.966523216410589
 21
12.18766033970538
 31
0.0
  0
LINE
  5
870
  8
0
 10
11.966523216410589
 20
3.6876603397053791
 30
0.0
 11
22.966523216410589
 21
3.6876603397053791
 31
0.0
  0
LINE
  5
871
  8
0
 10
11.966523216410589
 20
12.18766033970538
 30
0.0
 11
22.966523216410589
 21
12.18766033970538
 31
0.0
  0
LINE
  5
AE6
  8
FORM
 10
22.551690530632211
 20
4.1757519969408152
 30
0.0
 11
22.551690530632211
 21
10.94956868246995
 31
0.0
  0
LINE
  5
AE7
  8
FORM
 10
22.47843155917516
 20
11.022827653926999
 30
0.0
 11
12.45461487364604
 21
11.022827653926999
 31
0.0
  0
LINE
  5
AE8
  8
FORM
 10
22.47843155917516
 20
4.1024930254837626
 30
0.0
 11
12.45461487364604
 21
4.102493025483759
 31
0.0
  0
LINE
  5
AE9
  8
FORM
 10
12.381355902188981
 20
4.1757519969408152
 30
0.0
 11
12.381355902188981
 21
10.94956868246995
 31
0.0
  0
TEXT
  5
AEA
  8
FORM
 10
21.183117745501651
 20
5.0902651956272722
 30
0.0
 40
0.1240537661196631
  1
BUTTON
 72
     1
 11
21.522788771781681
 21
5.0902651956272722
 31
0.0
  0
TEXT
  5
AEB
  8
FORM
 10
21.059063979381989
 20
4.8277972030158649
 30
0.0
 40
0.1240537661196631
  1
SHOULDER
 72
     1
 11
21.522788771781681
 21
4.8277972030158649
 31
0.0
  0
TEXT
  5
AEC
  8
FORM
 10
20.381804681188441
 20
4.3508743042616018
 30
0.0
 40
0.1240537661196631
  1
ASTROMECH DROD
  0
TEXT
  5
AED
  8
FORM
 10
22.291386940593529
 20
4.3556970576665233
 30
0.0
 40
0.1240537661196631
  1
A
  0
TEXT
  5
AEE
  8
FORM
 10
20.575822202154509
 20
4.2060712620753389
 30
0.0
 40
0.0496215064478653
  1
FULL
  0
TEXT
  5
AEF
  8
FORM
 10
22.16571271842793
 20
4.2074601959288112
 30
0.0
 40
0.0496215064478653
  1
1   1
  0
TEXT
  5
AF0
  8
FORM
 10
21.343864575601842
 20
4.2112934171780312
 30
0.0
 40
0.0496215064478653
  1
APRIL 2005
 72
     2
 11
21.773917631483339
 21
4.2112934171780312
 31
0.0
  0
TEXT
  5
AF1
  8
FORM
  6
CONTINUOUS
 10
20.987419662376521
 20
4.2107941723471241
 30
0.0
 40
0.0428729815709556
  1
DRAWN:
  0
TEXT
  5
AF2
  8
FORM
  6
CONTINUOUS
 10
20.3237900028263
 20
4.2108343768576697
 30
0.0
 40
0.0428729815709556
  1
SCALE:
  0
TEXT
  5
AF3
  8
FORM
  6
CONTINUOUS
 10
21.891753137952708
 20
4.2102971024618947
 30
0.0
 40
0.0428729815709556
  1
SHEET:   OF
  0
TEXT
  5
AF4
  8
FORM
  6
CONTINUOUS
 10
20.2454984318382
 20
4.5508905856866804
 30
0.0
 40
0.0428729815709556
  1
DRAWING NO.
  0
TEXT
  5
AF5
  8
FORM
  6
CONTINUOUS
 10
22.274773605847962
 20
4.550890585686675
 30
0.0
 40
0.0428729815709556
  1
REV.
 72
     1
 11
22.338062292928889
 21
4.550890585686675
 31
0.0
  0
LINE
  5
AF6
  8
FORM
  6
CONTINUOUS
 10
20.31334598984191
 20
5.4190684624985268
 30
0.0
 11
22.37124910524777
 21
5.4190684624985268
 31
0.0
  0
LINE
  5
AF7
  8
FORM
  6
CONTINUOUS
 10
20.20616353591452
 20
4.2829344508682041
 30
0.0
 11
20.206163535914509
 21
5.3118860085711344
 31
0.0
  0
LINE
  5
AF8
  8
FORM
  6
CONTINUOUS
 10
20.20616353591452
 20
4.615200058043107
 30
0.0
 11
22.47843155917516
 21
4.615200058043107
 31
0.0
  0
LINE
  5
AF9
  8
FORM
  6
CONTINUOUS
 10
20.20616353591452
 20
4.2829344508682041
 30
0.0
 11
22.47843155917516
 21
4.2829344508682041
 31
0.0
  0
LINE
  5
AFA
  8
FORM
  6
CONTINUOUS
 10
20.920379938157591
 20
4.2829344508682041
 30
0.0
 11
20.920379938157591
 21
4.1757519969408152
 31
0.0
  0
LINE
  5
AFB
  8
FORM
  6
CONTINUOUS
 10
21.859598401774491
 20
4.2816150098995891
 30
0.0
 11
21.859598401774491
 21
4.174432555972202
 31
0.0
  0
LINE
  5
AFC
  8
FORM
  6
CONTINUOUS
 10
22.195220413325121
 20
4.615200058043107
 30
0.0
 11
22.195220413325121
 21
4.2829344508682041
 31
0.0
  0
ARC
  5
AFD
  8
FORM
 62
     5
 10
20.419226266441711
 20
5.0962730404531262
 30
0.0
 40
0.0116894331691455
 50
152.18113099770551
 51
330.99098814993278
  0
ARC
  5
AFE
  8
FORM
 62
     5
 10
20.469825340404061
 20
5.1937157309594957
 30
0.0
 40
0.0102497755016894
 50
335.3231536346421
 51
152.6722492633036
  0
ARC
  5
AFF
  8
FORM
 62
     5
 10
21.250541849636662
 20
4.7128031508558923
 30
0.0
 40
0.9271700191326036
 50
148.41494327216151
 51
155.19852313243231
  0
ARC
  5
B00
  8
FORM
 62
     5
 10
21.43000267567297
 20
4.6494629592514647
 30
0.0
 40
1.09348660618851
 50
150.40875710206339
 51
156.20744757951141
  0
ARC
  5
B01
  8
FORM
 62
     7
 10
20.38617145515688
 20
4.998069127014352
 30
0.0
 40
0.0156195918919929
 50
161.128725237971
 51
346.89295927401378
  0
ARC
  5
B02
  8
FORM
 62
     7
 10
24.95314746476825
 20
3.025455018487706
 30
0.0
 40
4.959414700690683
 50
153.58307292081309
 51
156.60691138966209
  0
ARC
  5
B03
  8
FORM
 62
     7
 10
24.236865011886671
 20
3.2831366597581342
 30
0.0
 40
4.225482682093805
 50
152.34095999775931
 51
152.9694116127464
  0
ARC
  5
B04
  8
FORM
 62
     7
 10
24.28423106057776
 20
3.1455049135068398
 30
0.0
 40
4.3314030024614532
 50
153.3711283527573
 51
154.60402195655351
  0
ARC
  5
B05
  8
FORM
 62
     7
 10
20.611506370829659
 20
5.1806251214850336
 30
0.0
 40
0.1123010753991666
 50
23.468725928191009
 51
88.151617587883351
  0
ARC
  5
B06
  8
FORM
 62
     7
 10
20.614016219795641
 20
5.18786514014751
 30
0.0
 40
0.1325466483605536
 50
18.232625295665539
 51
154.63608874642691
  0
ARC
  5
B07
  8
FORM
 62
     7
 10
20.653728666465309
 20
5.2016807201379232
 30
0.0
 40
0.0905081252328597
 50
336.99722732837893
 51
341.11190659806488
  0
ARC
  5
B08
  8
FORM
 62
     7
 10
20.65911180376931
 20
5.2056834647820622
 30
0.0
 40
0.0592800108120978
 50
333.24704424527528
 51
339.12675173356178
  0
ARC
  5
B09
  8
FORM
 62
     7
 10
20.715182276934751
 20
5.1776918614010627
 30
0.0
 40
0.0033975184677181
 50
157.3747590211585
 51
243.18317341424029
  0
ARC
  5
B0A
  8
FORM
 62
     7
 10
20.735249368414621
 20
5.1668410679167831
 30
0.0
 40
0.0018671770861506
 50
246.74236679857631
 51
343.55073793579641
  0
ARC
  5
B0B
  8
FORM
 62
     7
 10
20.7940045280451
 20
5.32289986542819
 30
0.0
 40
0.1686180993928079
 50
241.5396617947477
 51
249.33988332022491
  0
ARC
  5
B0C
  8
FORM
 62
     7
 10
20.676133366743549
 20
5.1440838933561324
 30
0.0
 40
0.0332867008385398
 50
210.28645373052609
 51
287.25915125833183
  0
ARC
  5
B0D
  8
FORM
 62
     7
 10
20.6789934379584
 20
5.1296895329536207
 30
0.0
 40
0.0187552005348545
 50
291.96730232828992
 51
10.20108836223371
  0
ARC
  5
B0E
  8
FORM
 62
     7
 10
20.53076752008208
 20
5.0976109477803107
 30
0.0
 40
0.1203411716101638
 50
14.28109924276106
 51
24.94726153987823
  0
ARC
  5
B0F
  8
FORM
 62
     7
 10
20.600957638491781
 20
5.1340611752901282
 30
0.0
 40
0.0414692038150907
 50
20.183063788867589
 51
47.833846572520187
  0
ARC
  5
B10
  8
FORM
 62
     7
 10
20.60871014696265
 20
5.1130561220590662
 30
0.0
 40
0.0555036247089069
 50
68.784960310907422
 51
94.742087985452599
  0
ARC
  5
B11
  8
FORM
 62
     7
 10
20.608106249411051
 20
5.1458580364845838
 30
0.0
 40
0.0228616406883783
 50
100.0375073429591
 51
170.98475346238999
  0
ARC
  5
B12
  8
FORM
 62
     7
 10
20.71563897397429
 20
5.1300551549093996
 30
0.0
 40
0.1315481147718127
 50
171.52589863719891
 51
197.49474109667489
  0
ARC
  5
B13
  8
FORM
 62
     7
 10
20.627025316147648
 20
5.1319162856024247
 30
0.0
 40
0.070435354543076
 50
0.8906501289532242
 51
49.113860192417171
  0
ARC
  5
B14
  8
FORM
 62
     7
 10
20.612186931200231
 20
5.1448355750189521
 30
0.0
 40
0.0554374351781352
 50
99.869748807366761
 51
175.59516845025641
  0
ARC
  5
B15
  8
FORM
 62
     7
 10
20.622182952841388
 20
5.1147755012583707
 30
0.0
 40
0.0868929870198762
 50
54.104282451028169
 51
102.9674010870567
  0
ARC
  5
B16
  8
FORM
 62
     7
 10
20.867420307454729
 20
5.1664749839093558
 30
0.0
 40
0.2874636616323473
 50
195.32307896217739
 51
209.29084315695809
  0
ARC
  5
B17
  8
FORM
 62
     7
 10
20.776970645458441
 20
5.119341595439284
 30
0.0
 40
0.2220595121447286
 50
172.3003020759547
 51
200.12627387409299
  0
ARC
  5
B18
  8
FORM
 62
     7
 10
20.93573889856318
 20
5.1813188073586316
 30
0.0
 40
0.3924747518553055
 50
200.64629086238151
 51
210.0464960904439
  0
ARC
  5
B19
  8
FORM
 62
     7
 10
20.395086634060029
 20
4.8771047701385983
 30
0.0
 40
0.2669036033788384
 50
28.431949107384341
 51
33.865461133002469
  0
ARC
  5
B1A
  8
FORM
 62
     7
 10
20.614308406322738
 20
4.9920393102008198
 30
0.0
 40
0.0196808185605977
 50
201.56446042640411
 51
38.094090168146302
  0
ARC
  5
B1B
  8
FORM
 62
     5
 10
20.787260954886118
 20
5.1555462000587688
 30
0.0
 40
0.0109475882235806
 50
227.6202696593605
 51
57.412112921204063
  0
ARC
  5
B1C
  8
FORM
 62
     5
 10
20.658150034947969
 20
4.987118353245493
 30
0.0
 40
0.2231303431240536
 50
52.766851639305791
 51
65.063571515457895
  0
ARC
  5
B1D
  8
FORM
 62
     5
 10
20.554286385690499
 20
4.8260819390536902
 30
0.0
 40
0.3926534127859294
 50
54.932512589538803
 51
74.152868438598929
  0
ARC
  5
B1E
  8
FORM
 62
     5
 10
20.55994775673857
 20
4.7093508393405843
 30
0.0
 40
0.5047836680613815
 50
78.393012355262385
 51
89.647961077025343
  0
ARC
  5
B1F
  8
FORM
 62
     5
 10
20.56220093567541
 20
5.2287759586592166
 30
0.0
 40
0.0146755181494107
 50
183.9979944211656
 51
273.313807745882
  0
ARC
  5
B20
  8
FORM
 62
     5
 10
20.611731251175431
 20
5.2326528741760887
 30
0.0
 40
0.0643569383653594
 50
145.6085916691928
 51
184.36670732083459
  0
ARC
  5
B21
  8
FORM
 62
     5
 10
20.572134440946371
 20
5.2604612092813658
 30
0.0
 40
0.0159849472723169
 50
75.244714174009715
 51
147.6929850116162
  0
ARC
  5
B22
  8
FORM
 62
     5
 10
20.38158995776314
 20
4.529204942560022
 30
0.0
 40
0.7716587169469522
 50
61.637242241525243
 51
75.392005557716686
  0
ARC
  5
B23
  8
FORM
 62
     5
 10
20.733587279207271
 20
5.1952531122913941
 30
0.0
 40
0.0195205512839304
 50
342.69825742684009
 51
41.672783787677609
  0
ARC
  5
B24
  8
FORM
 62
     7
 10
20.653728666465309
 20
5.2016807201379232
 30
0.0
 40
0.0905081252328597
 50
5.6380312699922799
 51
17.791456368736839
  0
ARC
  5
B25
  8
FORM
 62
     7
 10
20.69491659306459
 20
4.7751776461852637
 30
0.0
 40
0.0289618424161791
 50
88.432533024773406
 51
186.62631613112151
  0
ARC
  5
B26
  8
FORM
 62
     7
 10
20.69946207889863
 20
4.7812164538677697
 30
0.0
 40
0.0346094334010041
 50
195.7266305128272
 51
285.3806868435185
  0
ARC
  5
B27
  8
FORM
 62
     7
 10
20.658648126050039
 20
5.0874969675032169
 30
0.0
 40
0.3433099811180429
 50
278.37329371359471
 51
293.15208507016871
  0
ARC
  5
B28
  8
FORM
 62
     7
 10
20.773828672222329
 20
4.8714160488809899
 30
0.0
 40
0.0708062766559368
 50
257.51805604168283
 51
277.23103351305667
  0
ARC
  5
B29
  8
FORM
 62
     7
 10
20.77779857856244
 20
4.8132478455527066
 30
0.0
 40
0.0130473135597135
 50
292.26031345923337
 51
12.867379300523741
  0
ARC
  5
B2A
  8
FORM
 62
     7
 10
20.768097281927339
 20
4.8113773150845951
 30
0.0
 40
0.0229240259381713
 50
12.02537552739555
 51
52.143631645159317
  0
ARC
  5
B2B
  8
FORM
 62
     7
 10
21.256893592239798
 20
5.4053725116616063
 30
0.0
 40
0.7463393891068985
 50
219.60277928185971
 51
230.50020204080559
  0
ARC
  5
B2C
  8
FORM
 62
     7
 10
20.79616885491626
 20
5.0190685556320247
 30
0.0
 40
0.1451589246893384
 50
175.97523115435061
 51
218.04500009534149
  0
ARC
  5
B2D
  8
FORM
 62
     7
 10
20.734642890467128
 20
5.0336451045574062
 30
0.0
 40
0.083390506876368
 50
149.96078860476399
 51
183.01641230856191
  0
ARC
  5
B2E
  8
FORM
 62
     7
 10
20.676388238169
 20
5.0679487561305434
 30
0.0
 40
0.0157973271090111
 50
69.764209445538683
 51
151.8988190455112
  0
ARC
  5
B2F
  8
FORM
 62
     7
 10
20.674524482304811
 20
5.0668749860226772
 30
0.0
 40
0.0175037378911136
 50
357.6694469744499
 51
65.251102439515435
  0
ARC
  5
B30
  8
FORM
 62
     7
 10
20.633281778029708
 20
5.063490351785207
 30
0.0
 40
0.0587927523648524
 50
345.36193237678458
 51
2.6056939300727771
  0
ARC
  5
B31
  8
FORM
 62
     7
 10
20.821689027746981
 20
5.0079664171524891
 30
0.0
 40
0.1376662622860391
 50
162.8186183088072
 51
185.35496664157321
  0
ARC
  5
B32
  8
FORM
 62
     7
 10
20.806341445222529
 20
5.0217764680549344
 30
0.0
 40
0.1246028784563081
 50
192.3534994193023
 51
222.30204766960321
  0
ARC
  5
B33
  8
FORM
 62
     7
 10
21.235593296389791
 20
5.367827064020978
 30
0.0
 40
0.6757904342767203
 50
219.50633019139829
 51
228.42762303996261
  0
ARC
  5
B34
  8
FORM
 62
     7
 10
20.71424385486722
 20
4.7628867183212327
 30
0.0
 40
0.1232530459561097
 50
32.971129457978812
 51
53.728419363024337
  0
ARC
  5
B35
  8
FORM
 62
     7
 10
20.781078651790558
 20
4.8110468983464152
 30
0.0
 40
0.0411706022540692
 50
287.74749415951351
 51
27.352111896629431
  0
ARC
  5
B36
  8
FORM
 62
     7
 10
20.719482261948521
 20
4.5433118902831149
 30
0.0
 40
0.2618979945216389
 50
81.426570944510203
 51
95.208118001959775
  0
ARC
  5
B37
  8
FORM
 62
     7
 10
20.606432226583131
 20
4.9515652749946044
 30
0.0
 40
0.0116592986581434
 50
325.52447187114308
 51
75.340502228459783
  0
ARC
  5
B38
  8
FORM
 62
     7
 10
20.592067093039841
 20
4.9621123859181937
 30
0.0
 40
0.029477073809142
 50
277.78730616127859
 51
324.42957968808531
  0
ARC
  5
B39
  8
FORM
 62
     7
 10
20.58685402790616
 20
4.9670145946755042
 30
0.0
 40
0.0353282907560927
 50
243.48581874200181
 51
285.1065744639306
  0
ARC
  5
B3A
  8
FORM
 62
     7
 10
19.024278677709461
 20
0.9741469216495644
 30
0.0
 40
4.2921169546077023
 50
68.327181839257534
 51
70.606105230637283
  0
ARC
  5
B3B
  8
FORM
 62
     7
 10
20.446490830852749
 20
5.0101492054377532
 30
0.0
 40
0.0129317672482619
 50
76.445232091872299
 51
134.36352227876461
  0
ARC
  5
B3C
  8
FORM
 62
     7
 10
20.50398576686538
 20
4.9216892886276531
 30
0.0
 40
0.1182093245640582
 50
124.2547762008316
 51
135.012931962436
  0
ARC
  5
B3D
  8
FORM
 62
     7
 10
20.422599518175211
 20
5.0014969054782661
 30
0.0
 40
0.0043661837481845
 50
120.5491196217085
 51
251.48388650457539
  0
ARC
  5
B3E
  8
FORM
 62
     7
 10
19.83506764497
 20
3.3672121353260471
 30
0.0
 40
1.73232148942599
 50
64.85742894317822
 51
67.515132469299331
  0
ARC
  5
B3F
  8
FORM
 62
     7
 10
20.56702867879028
 20
4.9099291009709978
 30
0.0
 40
0.016355582703201
 50
329.18566117941782
 51
69.527151249863806
  0
ARC
  5
B40
  8
FORM
 62
     7
 10
20.52412099137133
 20
4.8451211089368309
 30
0.0
 40
0.0937315838270445
 50
58.747973844557571
 51
81.106226592028065
  0
ARC
  5
B41
  8
FORM
 62
     7
 10
20.51415017546698
 20
4.7829847706064816
 30
0.0
 40
0.1566625456309896
 50
81.016817915507374
 51
97.679603827268224
  0
ARC
  5
B42
  8
FORM
 62
     7
 10
20.530638763735819
 20
4.8300624843319362
 30
0.0
 40
0.1162077046398819
 50
121.5050128230592
 51
139.0957881060705
  0
ARC
  5
B43
  8
FORM
 62
     7
 10
20.562186690151851
 20
4.9074344291583021
 30
0.0
 40
0.0197838088598991
 50
277.70569210516868
 51
342.69880024124109
  0
ARC
  5
B44
  8
FORM
 62
     7
 10
20.556114855619711
 20
4.9297574571247704
 30
0.0
 40
0.0428262819911093
 50
250.08394506358289
 51
281.75453717228322
  0
ARC
  5
B45
  8
FORM
 62
     7
 10
20.57010705709774
 20
4.9346743465293548
 30
0.0
 40
0.0534626445011499
 50
221.18187885427241
 51
237.68378775985289
  0
ARC
  5
B46
  8
FORM
 62
     7
 10
20.507405165069521
 20
4.872695791825123
 30
0.0
 40
0.0349516136122833
 50
50.003848755011681
 51
75.5416830098399
  0
ARC
  5
B47
  8
FORM
 62
     7
 10
20.50555648785922
 20
4.8853643879587221
 30
0.0
 40
0.0236698600369107
 50
63.4626603498468
 51
100.74200229027051
  0
ARC
  5
B48
  8
FORM
 62
     7
 10
20.501144736082448
 20
4.8685685740722882
 30
0.0
 40
0.0400508933407635
 50
89.999999999999588
 51
125.5974615489027
  0
ARC
  5
B49
  8
FORM
 62
     7
 10
20.976244197778041
 20
5.1543782004324932
 30
0.0
 40
0.5541701639770315
 50
197.51922498184919
 51
203.981481444731
  0
ARC
  5
B4A
  8
FORM
 62
     7
 10
20.329407871691309
 20
4.977495892638184
 30
0.0
 40
0.1684445662203668
 50
346.52409876011302
 51
356.71498770316703
  0
ARC
  5
B4B
  8
FORM
 62
     7
 10
19.83506764497
 20
3.3672121353260471
 30
0.0
 40
1.73232148942599
 50
69.286600818944052
 51
70.22311760076802
  0
ARC
  5
B4C
  8
FORM
 62
     7
 10
20.420318198574918
 20
4.8308800448539841
 30
0.0
 40
0.0507962090609607
 50
245.40259669902051
 51
275.40975098180542
  0
ARC
  5
B4D
  8
FORM
 62
     7
 10
20.598431879661899
 20
4.7392220756451122
 30
0.0
 40
0.2018916056895807
 50
126.68044463040199
 51
139.78708822539889
  0
ARC
  5
B4E
  8
FORM
 62
     7
 10
20.419367959352229
 20
4.9737642819627537
 30
0.0
 40
0.1935393098665516
 50
271.69929119420118
 51
283.39540842056908
  0
ARC
  5
B4F
  8
FORM
 62
     7
 10
20.781266706969522
 20
4.5271170000914971
 30
0.0
 40
0.4804674435695996
 50
134.5410403491789
 51
138.91474429089911
  0
ARC
  5
B50
  8
FORM
 62
     7
 10
20.427331749517641
 20
4.8360408823361389
 30
0.0
 40
0.0127106797596904
 50
201.8252958964795
 51
267.16449786715452
  0
ARC
  5
B51
  8
FORM
 62
     7
 10
20.42459543433613
 20
4.8348349911279476
 30
0.0
 40
0.0097227119639509
 50
124.254854327418
 51
201.22329273937871
  0
ARC
  5
B52
  8
FORM
 62
     7
 10
20.454200211644501
 20
4.8269245201823203
 30
0.0
 40
0.0426250288051594
 50
283.5751770312794
 51
324.58969283639942
  0
ARC
  5
B53
  8
FORM
 62
     7
 10
20.478510126834351
 20
4.8066234818080931
 30
0.0
 40
0.0113194287533908
 50
337.14160324238748
 51
47.56496670892831
  0
ARC
  5
B54
  8
FORM
 62
     7
 10
20.461087239029752
 20
4.7817322052837836
 30
0.0
 40
0.0416329527718254
 50
52.990730681111657
 51
91.748895977531376
  0
ARC
  5
B55
  8
FORM
 62
     7
 10
20.443259800874252
 20
4.9363696736139149
 30
0.0
 40
0.1142301741608507
 50
261.66603807207321
 51
278.33396192792679
  0
ARC
  5
B56
  8
FORM
 62
     7
 10
20.40896520786362
 20
4.8091988674820492
 30
0.0
 40
0.026388878299001
 50
192.64550774538381
 51
248.2223967256862
  0
ARC
  5
B57
  8
FORM
 62
     7
 10
20.402479564363471
 20
4.8121883862216057
 30
0.0
 40
0.0211641200630232
 50
178.88427582775461
 51
204.46998391858139
  0
ARC
  5
B58
  8
FORM
 62
     7
 10
20.454834065800089
 20
4.80683973064545
 30
0.0
 40
0.0737399761016964
 50
140.54690015149379
 51
175.5193383191162
  0
ARC
  5
B59
  8
FORM
 62
     7
 10
21.181147828850211
 20
4.228558006410255
 30
0.0
 40
1.002139051054683
 50
137.4564398093305
 51
141.40545593619061
  0
POLYLINE
  5
B5A
  8
FORM
 62
     1
 10
20.585899309505294
 20
5.2663442496817652
 30
0.0
 66
     1
 70
     8
  0
VERTEX
  8
FORM
  5
BDE
 10
20.5859
 20
5.26634
 30
0.000000
  70
    32
  0
VERTEX
  8
FORM
  5
BDF
 10
20.5855
 20
5.26651
 30
0.000000
  70
    32
  0
VERTEX
  8
FORM
  5
BE0
 10
20.5850
 20
5.26662
 30
0.000000
  70
    32
  0
VERTEX
  8
FORM
  5
BE1
 10
20.5845
 20
5.26668
 30
0.000000
  70
    32
  0
VERTEX
  8
FORM
  5
BE2
 10
20.5840
 20
5.26669
 30
0.000000
  70
    32
  0
VERTEX
  8
FORM
  5
BE3
 10
20.5835
 20
5.26664
 30
0.000000
  70
    32
  0
VERTEX
  8
FORM
  5
BE4
 10
20.5829
 20
5.26655
 30
0.000000
  70
    32
  0
VERTEX
  8
FORM
  5
BE5
 10
20.5824
 20
5.26640
 30
0.000000
  70
    32
  0
VERTEX
  8
FORM
  5
BE6
 10
20.5818
 20
5.26620
 30
0.000000
  70
    32
  0
VERTEX
  8
FORM
  5
BE7
 10
20.5812
 20
5.26594
 30
0.000000
  70
    32
  0
VERTEX
  8
FORM
  5
BE8
 10
20.5806
 20
5.26564
 30
0.000000
  70
    32
  0
VERTEX
  8
FORM
  5
BE9
 10
20.5800
 20
5.26529
 30
0.000000
  70
    32
  0
VERTEX
  8
FORM
  5
BEA
 10
20.5794
 20
5.26489
 30
0.000000
  70
    32
  0
VERTEX
  8
FORM
  5
BEB
 10
20.5788
 20
5.26444
 30
0.000000
  70
    32
  0
VERTEX
  8
FORM
  5
BEC
 10
20.5782
 20
5.26394
 30
0.000000
  70
    32
  0
VERTEX
  8
FORM
  5
BED
 10
20.5776
 20
5.26340
 30
0.000000
  70
    32
  0
VERTEX
  8
FORM
  5
BEE
 10
20.5769
 20
5.26281
 30
0.000000
  70
    32
  0
VERTEX
  8
FORM
  5
BEF
 10
20.5763
 20
5.26218
 30
0.000000
  70
    32
  0
VERTEX
  8
FORM
  5
BF0
 10
20.5757
 20
5.26151
 30
0.000000
  70
    32
  0
VERTEX
  8
FORM
  5
BF1
 10
20.5750
 20
5.26080
 30
0.000000
  70
    32
  0
VERTEX
  8
FORM
  5
BF2
 10
20.5744
 20
5.26005
 30
0.000000
  70
    32
  0
VERTEX
  8
FORM
  5
BF3
 10
20.5738
 20
5.25926
 30
0.000000
  70
    32
  0
VERTEX
  8
FORM
  5
BF4
 10
20.5732
 20
5.25844
 30
0.000000
  70
    32
  0
VERTEX
  8
FORM
  5
BF5
 10
20.5726
 20
5.25759
 30
0.000000
  70
    32
  0
VERTEX
  8
FORM
  5
BF6
 10
20.5720
 20
5.25671
 30
0.000000
  70
    32
  0
VERTEX
  8
FORM
  5
BF7
 10
20.5714
 20
5.25580
 30
0.000000
  70
    32
  0
VERTEX
  8
FORM
  5
BF8
 10
20.5708
 20
5.25486
 30
0.000000
  70
    32
  0
VERTEX
  8
FORM
  5
BF9
 10
20.5702
 20
5.25390
 30
0.000000
  70
    32
  0
VERTEX
  8
FORM
  5
BFA
 10
20.5697
 20
5.25292
 30
0.000000
  70
    32
  0
VERTEX
  8
FORM
  5
BFB
 10
20.5692
 20
5.25191
 30
0.000000
  70
    32
  0
VERTEX
  8
FORM
  5
BFC
 10
20.5687
 20
5.25089
 30
0.000000
  70
    32
  0
VERTEX
  8
FORM
  5
BFD
 10
20.5682
 20
5.24986
 30
0.000000
  70
    32
  0
VERTEX
  8
FORM
  5
BFE
 10
20.5677
 20
5.24882
 30
0.000000
  70
    32
  0
VERTEX
  8
FORM
  5
BFF
 10
20.5672
 20
5.24776
 30
0.000000
  70
    32
  0
VERTEX
  8
FORM
  5
C00
 10
20.5668
 20
5.24670
 30
0.000000
  70
    32
  0
VERTEX
  8
FORM
  5
C01
 10
20.5664
 20
5.24563
 30
0.000000
  70
    32
  0
VERTEX
  8
FORM
  5
C02
 10
20.5660
 20
5.24457
 30
0.000000
  70
    32
  0
VERTEX
  8
FORM
  5
C03
 10
20.5657
 20
5.24350
 30
0.000000
  70
    32
  0
VERTEX
  8
FORM
  5
C04
 10
20.5653
 20
5.24244
 30
0.000000
  70
    32
  0
VERTEX
  8
FORM
  5
C05
 10
20.5650
 20
5.24138
 30
0.000000
  70
    32
  0
VERTEX
  8
FORM
  5
C06
 10
20.5648
 20
5.24033
 30
0.000000
  70
    32
  0
VERTEX
  8
FORM
  5
C07
 10
20.5645
 20
5.23930
 30
0.000000
  70
    32
  0
VERTEX
  8
FORM
  5
C08
 10
20.5643
 20
5.23827
 30
0.000000
  70
    32
  0
VERTEX
  8
FORM
  5
C09
 10
20.5641
 20
5.23726
 30
0.000000
  70
    32
  0
VERTEX
  8
FORM
  5
C0A
 10
20.5640
 20
5.23628
 30
0.000000
  70
    32
  0
VERTEX
  8
FORM
  5
C0B
 10
20.5638
 20
5.23531
 30
0.000000
  70
    32
  0
VERTEX
  8
FORM
  5
C0C
 10
20.5637
 20
5.23436
 30
0.000000
  70
    32
  0
VERTEX
  8
FORM
  5
C0D
 10
20.5637
 20
5.23344
 30
0.000000
  70
    32
  0
VERTEX
  8
FORM
  5
C0E
 10
20.5636
 20
5.23255
 30
0.000000
  70
    32
  0
VERTEX
  8
FORM
  5
C0F
 10
20.5636
 20
5.23169
 30
0.000000
  70
    32
  0
VERTEX
  8
FORM
  5
C10
 10
20.5637
 20
5.23086
 30
0.000000
  70
    32
  0
VERTEX
  8
FORM
  5
C11
 10
20.5637
 20
5.23007
 30
0.000000
  70
    32
  0
VERTEX
  8
FORM
  5
C12
 10
20.5638
 20
5.22931
 30
0.000000
  70
    32
  0
VERTEX
  8
FORM
  5
C13
 10
20.5639
 20
5.22858
 30
0.000000
  70
    32
  0
VERTEX
  8
FORM
  5
C14
 10
20.5641
 20
5.22790
 30
0.000000
  70
    32
  0
VERTEX
  8
FORM
  5
C15
 10
20.5642
 20
5.22726
 30
0.000000
  70
    32
  0
VERTEX
  8
FORM
  5
C16
 10
20.5645
 20
5.22666
 30
0.000000
  70
    32
  0
VERTEX
  8
FORM
  5
C17
 10
20.5647
 20
5.22610
 30
0.000000
  70
    32
  0
VERTEX
  8
FORM
  5
C18
 10
20.5650
 20
5.22560
 30
0.000000
  70
    32
  0
VERTEX
  8
FORM
  5
C19
 10
20.5652
 20
5.22513
 30
0.000000
  70
    32
  0
VERTEX
  8
FORM
  5
C1A
 10
20.5656
 20
5.22472
 30
0.000000
  70
    32
  0
VERTEX
  8
FORM
  5
C1B
 10
20.5659
 20
5.22435
 30
0.000000
  70
    32
  0
VERTEX
  8
FORM
  5
C1C
 10
20.5663
 20
5.22403
 30
0.000000
  70
    32
  0
VERTEX
  8
FORM
  5
C1D
 10
20.5667
 20
5.22377
 30
0.000000
  70
    32
  0
VERTEX
  8
FORM
  5
C1E
 10
20.5671
 20
5.22355
 30
0.000000
  70
    32
  0
VERTEX
  8
FORM
  5
C1F
 10
20.5676
 20
5.22339
 30
0.000000
  70
    32
  0
VERTEX
  8
FORM
  5
C20
 10
20.5680
 20
5.22328
 30
0.000000
  70
    32
  0
VERTEX
  8
FORM
  5
C21
 10
20.5685
 20
5.22322
 30
0.000000
  70
    32
  0
VERTEX
  8
FORM
  5
C22
 10
20.5690
 20
5.22321
 30
0.000000
  70
    32
  0
VERTEX
  8
FORM
  5
C23
 10
20.5695
 20
5.22325
 30
0.000000
  70
    32
  0
VERTEX
  8
FORM
  5
C24
 10
20.5701
 20
5.22335
 30
0.000000
  70
    32
  0
VERTEX
  8
FORM
  5
C25
 10
20.5706
 20
5.22350
 30
0.000000
  70
    32
  0
VERTEX
  8
FORM
  5
C26
 10
20.5712
 20
5.22370
 30
0.000000
  70
    32
  0
VERTEX
  8
FORM
  5
C27
 10
20.5718
 20
5.22395
 30
0.000000
  70
    32
  0
VERTEX
  8
FORM
  5
C28
 10
20.5724
 20
5.22425
 30
0.000000
  70
    32
  0
VERTEX
  8
FORM
  5
C29
 10
20.5730
 20
5.22461
 30
0.000000
  70
    32
  0
VERTEX
  8
FORM
  5
C2A
 10
20.5736
 20
5.22501
 30
0.000000
  70
    32
  0
VERTEX
  8
FORM
  5
C2B
 10
20.5742
 20
5.22546
 30
0.000000
  70
    32
  0
VERTEX
  8
FORM
  5
C2C
 10
20.5748
 20
5.22595
 30
0.000000
  70
    32
  0
VERTEX
  8
FORM
  5
C2D
 10
20.5755
 20
5.22650
 30
0.000000
  70
    32
  0
VERTEX
  8
FORM
  5
C2E
 10
20.5761
 20
5.22708
 30
0.000000
  70
    32
  0
VERTEX
  8
FORM
  5
C2F
 10
20.5767
 20
5.22771
 30
0.000000
  70
    32
  0
VERTEX
  8
FORM
  5
C30
 10
20.5774
 20
5.22838
 30
0.000000
  70
    32
  0
VERTEX
  8
FORM
  5
C31
 10
20.5780
 20
5.22910
 30
0.000000
  70
    32
  0
VERTEX
  8
FORM
  5
C32
 10
20.5786
 20
5.22984
 30
0.000000
  70
    32
  0
VERTEX
  8
FORM
  5
C33
 10
20.5792
 20
5.23063
 30
0.000000
  70
    32
  0
VERTEX
  8
FORM
  5
C34
 10
20.5798
 20
5.23145
 30
0.000000
  70
    32
  0
VERTEX
  8
FORM
  5
C35
 10
20.5804
 20
5.23230
 30
0.000000
  70
    32
  0
VERTEX
  8
FORM
  5
C36
 10
20.5810
 20
5.23319
 30
0.000000
  70
    32
  0
VERTEX
  8
FORM
  5
C37
 10
20.5816
 20
5.23410
 30
0.000000
  70
    32
  0
VERTEX
  8
FORM
  5
C38
 10
20.5822
 20
5.23504
 30
0.000000
  70
    32
  0
VERTEX
  8
FORM
  5
C39
 10
20.5828
 20
5.23600
 30
0.000000
  70
    32
  0
VERTEX
  8
FORM
  5
C3A
 10
20.5833
 20
5.23698
 30
0.000000
  70
    32
  0
VERTEX
  8
FORM
  5
C3B
 10
20.5838
 20
5.23798
 30
0.000000
  70
    32
  0
VERTEX
  8
FORM
  5
C3C
 10
20.5843
 20
5.23900
 30
0.000000
  70
    32
  0
VERTEX
  8
FORM
  5
C3D
 10
20.5848
 20
5.24003
 30
0.000000
  70
    32
  0
VERTEX
  8
FORM
  5
C3E
 10
20.5853
 20
5.24108
 30
0.000000
  70
    32
  0
VERTEX
  8
FORM
  5
C3F
 10
20.5858
 20
5.24213
 30
0.000000
  70
    32
  0
VERTEX
  8
FORM
  5
C40
 10
20.5862
 20
5.24320
 30
0.000000
  70
    32
  0
VERTEX
  8
FORM
  5
C41
 10
20.5866
 20
5.24426
 30
0.000000
  70
    32
  0
VERTEX
  8
FORM
  5
C42
 10
20.5870
 20
5.24533
 30
0.000000
  70
    32
  0
VERTEX
  8
FORM
  5
C43
 10
20.5873
 20
5.24640
 30
0.000000
  70
    32
  0
VERTEX
  8
FORM
  5
C44
 10
20.5877
 20
5.24746
 30
0.000000
  70
    32
  0
VERTEX
  8
FORM
  5
C45
 10
20.5880
 20
5.24851
 30
0.000000
  70
    32
  0
VERTEX
  8
FORM
  5
C46
 10
20.5882
 20
5.24956
 30
0.000000
  70
    32
  0
VERTEX
  8
FORM
  5
C47
 10
20.5885
 20
5.25060
 30
0.000000
  70
    32
  0
VERTEX
  8
FORM
  5
C48
 10
20.5887
 20
5.25162
 30
0.000000
  70
    32
  0
VERTEX
  8
FORM
  5
C49
 10
20.5889
 20
5.25263
 30
0.000000
  70
    32
  0
VERTEX
  8
FORM
  5
C4A
 10
20.5890
 20
5.25362
 30
0.000000
  70
    32
  0
VERTEX
  8
FORM
  5
C4B
 10
20.5892
 20
5.25459
 30
0.000000
  70
    32
  0
VERTEX
  8
FORM
  5
C4C
 10
20.5893
 20
5.25553
 30
0.000000
  70
    32
  0
VERTEX
  8
FORM
  5
C4D
 10
20.5893
 20
5.25645
 30
0.000000
  70
    32
  0
VERTEX
  8
FORM
  5
C4E
 10
20.5894
 20
5.25734
 30
0.000000
  70
    32
  0
VERTEX
  8
FORM
  5
C4F
 10
20.5894
 20
5.25820
 30
0.000000
  70
    32
  0
VERTEX
  8
FORM
  5
C50
 10
20.5894
 20
5.25903
 30
0.000000
  70
    32
  0
VERTEX
  8
FORM
  5
C51
 10
20.5893
 20
5.25983
 30
0.000000
  70
    32
  0
VERTEX
  8
FORM
  5
C52
 10
20.5892
 20
5.26059
 30
0.000000
  70
    32
  0
VERTEX
  8
FORM
  5
C53
 10
20.5891
 20
5.26131
 30
0.000000
  70
    32
  0
VERTEX
  8
FORM
  5
C54
 10
20.5889
 20
5.26199
 30
0.000000
  70
    32
  0
VERTEX
  8
FORM
  5
C55
 10
20.5888
 20
5.26264
 30
0.000000
  70
    32
  0
VERTEX
  8
FORM
  5
C56
 10
20.5886
 20
5.26324
 30
0.000000
  70
    32
  0
VERTEX
  8
FORM
  5
C57
 10
20.5883
 20
5.26379
 30
0.000000
  70
    32
  0
VERTEX
  8
FORM
  5
C58
 10
20.5881
 20
5.26430
 30
0.000000
  70
    32
  0
VERTEX
  8
FORM
  5
C59
 10
20.5878
 20
5.26476
 30
0.000000
  70
    32
  0
VERTEX
  8
FORM
  5
C5A
 10
20.5874
 20
5.26518
 30
0.000000
  70
    32
  0
VERTEX
  8
FORM
  5
C5B
 10
20.5871
 20
5.26555
 30
0.000000
  70
    32
  0
VERTEX
  8
FORM
  5
C5C
 10
20.5867
 20
5.26586
 30
0.000000
  70
    32
  0
VERTEX
  8
FORM
  5
C5D
 10
20.5863
 20
5.26613
 30
0.000000
  70
    32
  0
VERTEX
  8
FORM
  5
C5E
 10
20.5859
 20
5.26634
 30
0.000000
  70
    32
  0
SEQEND
  8
FORM
  5
C5F
  0
ARC
  5
B5B
  8
FORM
 62
     7
 10
20.606885773311848
 20
5.1884715115440461
 30
0.0
 40
0.10472116332788
 50
85.485448269952457
 51
155.5006785655419
  0
TEXT
  5
B5C
  8
FORM
 62
     7
 10
20.238421072255338
 20
4.6408527986449837
 30
0.0
 40
0.0410250240159514
  1
R2-D2 BUILDERS CLUB
  0
ARC
  5
B5D
  8
FORM
 10
12.45461487364604
 20
4.1757519969408152
 30
0.0
 40
0.073258971457056
 50
180.0
 51
270.0
  0
ARC
  5
B5E
  8
FORM
 10
12.45461487364604
 20
4.1757519969408152
 30
0.0
 40
0.1465179429141119
 50
180.0
 51
270.0
  0
ARC
  5
B5F
  8
FORM
 10
12.45461487364604
 20
4.1757519969408152
 30
0.0
 40
0.1648326857783759
 50
180.0
 51
270.0
  0
ARC
  5
B60
  8
FORM
 10
12.45461487364604
 20
4.1757519969408152
 30
0.0
 40
0.2380916572354319
 50
180.0
 51
270.0
  0
ARC
  5
B61
  8
FORM
 10
12.45461487364604
 20
10.94956868246995
 30
0.0
 40
0.2380916572354319
 50
90.0
 51
180.0
  0
ARC
  5
B62
  8
FORM
 10
12.45461487364604
 20
10.94956868246995
 30
0.0
 40
0.1648326857783759
 50
90.0
 51
180.0
  0
ARC
  5
B63
  8
FORM
 10
12.45461487364604
 20
10.94956868246995
 30
0.0
 40
0.1465179429141119
 50
90.0
 51
180.0
  0
ARC
  5
B64
  8
FORM
 10
12.45461487364604
 20
10.94956868246995
 30
0.0
 40
0.073258971457056
 50
90.0
 51
180.0
  0
ARC
  5
B65
  8
FORM
 10
22.47843155917516
 20
10.94956868246995
 30
0.0
 40
0.1465179429141119
 50
0.0
 51
90.0
  0
ARC
  5
B66
  8
FORM
 10
22.47843155917516
 20
10.94956868246995
 30
0.0
 40
0.1648326857783759
 50
0.0
 51
90.0
  0
ARC
  5
B67
  8
FORM
 10
22.47843155917516
 20
10.94956868246995
 30
0.0
 40
0.2380916572354319
 50
0.0
 51
90.0
  0
ARC
  5
B68
  8
FORM
 10
22.47843155917516
 20
10.94956868246995
 30
0.0
 40
0.073258971457056
 50
0.0
 51
90.0
  0
ARC
  5
B69
  8
FORM
 10
22.47843155917516
 20
4.1757519969408152
 30
0.0
 40
0.2380916572354319
 50
270.0
 51
0.0
  0
ARC
  5
B6A
  8
FORM
 10
22.47843155917516
 20
4.1757519969408152
 30
0.0
 40
0.1648326857783759
 50
270.0
 51
0.0
  0
ARC
  5
B6B
  8
FORM
 10
22.47843155917516
 20
4.1757519969408152
 30
0.0
 40
0.1465179429141119
 50
270.0
 51
0.0
  0
ARC
  5
B6C
  8
FORM
 10
22.47843155917516
 20
4.1757519969408152
 30
0.0
 40
0.073258971457056
 50
270.0
 51
0.0
  0
LINE
  5
B6D
  8
FORM
 10
22.47843155917516
 20
4.0292340540267082
 30
0.0
 11
12.45461487364604
 21
4.0292340540267029
 31
0.0
  0
LINE
  5
B6E
  8
FORM
 10
22.47843155917516
 20
4.0109193111624437
 30
0.0
 11
12.45461487364604
 21
4.0109193111624402
 31
0.0
  0
LINE
  5
B6F
  8
FORM
 10
22.47843155917516
 20
3.9376603397053831
 30
0.0
 11
12.45461487364604
 21
3.9376603397053791
 31
0.0
  0
LINE
  5
B70
  8
FORM
 10
22.624949502089269
 20
4.1757519969408152
 30
0.0
 11
22.624949502089269
 21
10.94956868246995
 31
0.0
  0
LINE
  5
B71
  8
FORM
 10
22.643264244953539
 20
4.1757519969408152
 30
0.0
 11
22.643264244953539
 21
10.94956868246995
 31
0.0
  0
LINE
  5
B72
  8
FORM
 10
22.7165232164106
 20
4.1757519969408152
 30
0.0
 11
22.7165232164106
 21
10.94956868246995
 31
0.0
  0
LINE
  5
B73
  8
FORM
 10
22.47843155917516
 20
11.096086625384061
 30
0.0
 11
12.45461487364604
 21
11.096086625384061
 31
0.0
  0
LINE
  5
B74
  8
FORM
 10
22.47843155917516
 20
11.11440136824832
 30
0.0
 11
12.45461487364604
 21
11.11440136824832
 31
0.0
  0
LINE
  5
B75
  8
FORM
 10
22.47843155917516
 20
11.18766033970538
 30
0.0
 11
12.45461487364604
 21
11.18766033970538
 31
0.0
  0
LINE
  5
B76
  8
FORM
 10
12.30809693073193
 20
4.1757519969408152
 30
0.0
 11
12.30809693073193
 21
10.94956868246995
 31
0.0
  0
LINE
  5
B77
  8
FORM
 10
12.289782187867671
 20
4.1757519969408152
 30
0.0
 11
12.289782187867671
 21
10.94956868246995
 31
0.0
  0
LINE
  5
B78
  8
FORM
 10
12.216523216410589
 20
4.1757519969408161
 30
0.0
 11
12.216523216410611
 21
10.94956868246995
 31
0.0
  0
LINE
  5
B79
  8
FORM
  6
CONTINUOUS
 10
20.31334598984191
 20
4.1757519969408152
 30
0.0
 11
22.37124910524777
 21
4.1757519969408152
 31
0.0
  0
LINE
  5
B7A
  8
FORM
  6
CONTINUOUS
 10
22.47843155917516
 20
5.3118860085711344
 30
0.0
 11
22.47843155917516
 21
4.2829344508682041
 31
0.0
  0
ARC
  5
B7B
  8
FORM
  6
CONTINUOUS
 10
22.37124910524777
 20
4.2829344508682041
 30
0.0
 40
0.1071824539273883
 50
270.0
 51
0.0
  0
ARC
  5
B7C
  8
FORM
  6
CONTINUOUS
 10
22.37124910524777
 20
5.3118860085711344
 30
0.0
 40
0.1071824539273883
 50
359.99999999999989
 51
90.0
  0
ARC
  5
B7D
  8
FORM
  6
CONTINUOUS
 10
20.31334598984191
 20
4.2829344508682041
 30
0.0
 40
0.1071824539273883
 50
180.0
 51
270.0
  0
ARC
  5
B7E
  8
FORM
  6
CONTINUOUS
 10
20.31334598984191
 20
5.3118860085711344
 30
0.0
 40
0.1071824539273883
 50
90.0
 51
180.0
  0
VIEWPORT
  5
4AC
 67
     1
  8
0
 10
5.2499996395561626
 20
3.999999883606677
 30
0.0
 40
20.140366463596749
 41
8.9929997457669462
 68
     1
 69
     1
1001
ACAD
1000
MVIEW
1002
{
1070
    16
1010
0.0
1020
0.0
1030
0.0
1010
0.0
1020
0.0
1030
1.0
1040
0.0
1040
8.9929997457669462
1040
5.2499996395561626
1040
3.999999883606677
1040
50.0
1040
0.0
1040
0.0
1070
     0
1070
 20000
1070
     1
1070
     1
1070
     0
1070
     0
1070
     0
1070
     0
1040
0.0
1040
0.0
1040
0.0
1040
0.5
1040
0.5
1040
0.5
1040
0.5
1070
     0
1002
{
1002
}
1002
}
  0
ENDSEC
  0
EOF
